<svg width="18" height="19" viewBox="0 0 18 19" fill="none" xmlns="http://www.w3.org/2000/svg">
<path d="M8.85727 12.5C5.6872 12.5 2.86807 14.0306 1.07327 16.406C0.686977 16.9172 0.493832 17.1728 0.50015 17.5183C0.505031 17.7852 0.672633 18.1219 0.882639 18.2867C1.15446 18.5 1.53114 18.5 2.2845 18.5H15.43C16.1834 18.5 16.5601 18.5 16.8319 18.2867C17.0419 18.1219 17.2095 17.7852 17.2144 17.5183C17.2207 17.1728 17.0276 16.9172 16.6413 16.406C14.8465 14.0306 12.0273 12.5 8.85727 12.5Z" stroke="currentColor" stroke-linecap="round" stroke-linejoin="round"/>
<path d="M8.85727 9.5C11.3426 9.5 13.3573 7.48528 13.3573 5C13.3573 2.51472 11.3426 0.5 8.85727 0.5C6.37199 0.5 4.35727 2.51472 4.35727 5C4.35727 7.48528 6.37199 9.5 8.85727 9.5Z" stroke="currentColor" stroke-linecap="round" stroke-linejoin="round"/>
</svg>
