<svg width="19" height="20" viewBox="0 0 19 20" fill="none" xmlns="http://www.w3.org/2000/svg">
<path d="M11.239 19.5H7.23903M15.239 6.5C15.239 4.9087 14.6069 3.38258 13.4817 2.25736C12.3565 1.13214 10.8303 0.5 9.23903 0.5C7.64773 0.5 6.12161 1.13214 4.99639 2.25736C3.87117 3.38258 3.23903 4.9087 3.23903 6.5C3.23903 9.59018 2.4595 11.706 1.5887 13.1054C0.854159 14.2859 0.486891 14.8761 0.500357 15.0408C0.515269 15.2231 0.553892 15.2926 0.700808 15.4016C0.833491 15.5 1.43162 15.5 2.62789 15.5H15.8502C17.0464 15.5 17.6446 15.5 17.7773 15.4016C17.9242 15.2926 17.9628 15.2231 17.9777 15.0408C17.9912 14.8761 17.6239 14.2859 16.8894 13.1054C16.0186 11.706 15.239 9.59019 15.239 6.5Z" stroke="currentColor" stroke-linecap="round" stroke-linejoin="round"/>
</svg>
