<svg width="64" height="64" viewBox="0 0 64 64" fill="none" xmlns="http://www.w3.org/2000/svg">
<g clip-path="url(#clip0_nfc)">
<path d="M29.3334 53.3333C27.2116 53.3333 25.1768 52.4905 23.6765 50.9902C22.1762 49.4899 21.3334 47.4551 21.3334 45.3333V16L34.6667 29.3333" stroke="#2D7FF9" stroke-width="2" stroke-linecap="round" stroke-linejoin="round"/>
<path d="M34.6667 10.6667C36.7884 10.6667 38.8233 11.5095 40.3236 13.0098C41.8239 14.5101 42.6667 16.5449 42.6667 18.6667V48L29.3334 34.6667" stroke="#2D7FF9" stroke-width="2" stroke-linecap="round" stroke-linejoin="round"/>
<path d="M10.6666 18.6667C10.6666 16.5449 11.5095 14.5101 13.0098 13.0098C14.5101 11.5095 16.5449 10.6667 18.6666 10.6667H45.3333C47.455 10.6667 49.4899 11.5095 50.9901 13.0098C52.4904 14.5101 53.3333 16.5449 53.3333 18.6667V45.3333C53.3333 47.4551 52.4904 49.4899 50.9901 50.9902C49.4899 52.4905 47.455 53.3333 45.3333 53.3333H18.6666C16.5449 53.3333 14.5101 52.4905 13.0098 50.9902C11.5095 49.4899 10.6666 47.4551 10.6666 45.3333V18.6667Z" stroke="#2D7FF9" stroke-width="2" stroke-linecap="round" stroke-linejoin="round"/>
</g>
<defs>
<clipPath id="clip0_nfc">
<rect width="64" height="64" fill="white"/>
</clipPath>
</defs>
</svg>
