<svg width="15" height="21" viewBox="0 0 15 21" fill="none" xmlns="http://www.w3.org/2000/svg">
<path d="M5 20.5H10M10.5 13.8264C12.8649 12.7029 14.5 10.2924 14.5 7.5C14.5 3.63401 11.366 0.5 7.5 0.5C3.63401 0.5 0.5 3.63401 0.5 7.5C0.5 10.2924 2.13505 12.7029 4.5 13.8264V14.5C4.5 15.4319 4.5 15.8978 4.65224 16.2654C4.85523 16.7554 5.24458 17.1448 5.73463 17.3478C6.10218 17.5 6.56812 17.5 7.5 17.5C8.43188 17.5 8.89782 17.5 9.26537 17.3478C9.75542 17.1448 10.1448 16.7554 10.3478 16.2654C10.5 15.8978 10.5 15.4319 10.5 14.5V13.8264Z" stroke="currentColor" stroke-linecap="round" stroke-linejoin="round"/>
</svg>
